# xmcd
#
# Track frame offsets: 
#        150
#        12005
#        27937
#        46387
#        63795
#        81642
#        94867
#        108222
#        122067
#        140565
#        158265
#        176187
#        193534
#        210665
#
# Disc length: 3010 seconds
#
# Revision: 0
# Processed by: cddbd v1.5.2PL0 Copyright (c) Steve Scherf et al.
# Submitted via: ExactAudioCopy v0.95b4
#
DISCID=b50bc00e
DTITLE=Sky Country-United States Air Force Band Of The West - Horizons
DYEAR=1996
DGENRE=Country
TTITLE0=Should've Asked Her Faster
TTITLE1=That's How You Know
TTITLE2=Amy's Back In Austin
TTITLE3=The Song Remembers When
TTITLE4=Halls Of Love
TTITLE5=Mi Vida Loca
TTITLE6=Stay Forever
TTITLE7=Better Things To Do
TTITLE8=Bubba Hyde
TTITLE9=When You Say Nothing At All
TTITLE10=When Love Finds You
TTITLE11=Any Man Of Mine
TTITLE12=I Don't Even Know Our Name
TTITLE13=Why Haven't I Heard From You
EXTD=
EXTT0=
EXTT1=
EXTT2=
EXTT3=
EXTT4=
EXTT5=
EXTT6=
EXTT7=
EXTT8=
EXTT9=
EXTT10=
EXTT11=
EXTT12=
EXTT13=
PLAYORDER=
